<svg width="512" height="512" viewBox="0 0 512 512" fill="none" xmlns="http://www.w3.org/2000/svg">
<path d="M112.587 511.129C112.587 510.631 115.827 507.023 119.691 503.042L126.795 495.825H169.418H212.042L233.976 479.526C246.066 470.567 256.659 463.475 257.531 463.848C258.279 464.222 268.748 471.438 280.713 480.148L302.398 495.825H344.025H385.651L393.129 502.917C397.117 506.774 400.482 510.383 400.482 511.005C400.482 511.502 376.927 512 348.013 512H295.544L278.594 499.558C259.276 485.374 256.534 484.627 248.683 490.599C246.19 492.59 238.588 498.189 231.982 503.042L219.893 512H166.178C136.765 512 112.587 511.627 112.587 511.129Z" fill="#50B93F"/>
<path d="M402.601 490.847L394.126 483.382H352.624H310.998L304.393 478.778C300.654 476.29 289.935 468.451 280.588 461.359L263.389 448.419V366.176C263.389 285.55 263.389 283.684 266.007 278.582C268.499 273.232 277.099 264.398 279.716 264.398C280.713 264.398 280.837 266.389 280.214 270.993C278.469 283.435 277.597 320.14 277.722 372.646C277.971 435.106 277.597 433.115 290.683 446.055C295.17 450.534 303.395 457.129 308.755 460.737L318.6 467.207H379.295C429.895 467.207 440.987 467.456 445.349 469.073C452.204 471.437 472.892 485.124 480.868 492.465L487.1 498.188L449.088 498.313H410.951L402.601 490.847Z" fill="url(#paint0_linear_1_301)"/>
<path d="M32.9484 489.23C40.0523 482.511 55.6311 472.806 64.9783 469.198C69.5896 467.456 77.6906 467.207 132.403 467.207H194.469L208.677 457.129C224.131 446.304 227.122 443.318 231.235 434.857C233.727 429.756 233.977 426.521 234.849 399.397C235.846 363.439 234.974 289.656 233.353 277.089C231.982 265.643 231.982 264.398 233.478 264.398C235.971 264.398 244.57 273.357 247.063 278.582C249.68 283.684 249.68 285.55 249.68 366.798V449.664L234.101 461.235C225.502 467.58 215.157 475.17 211.045 478.156L203.567 483.382H172.659C155.709 483.382 136.391 483.755 129.661 484.253L117.448 485L111.341 490.474L105.358 495.824H65.7261L25.9692 495.7L32.9484 489.23Z" fill="url(#paint1_linear_1_301)"/>
<path d="M294.798 408.843C312.676 459.109 352.571 453.398 400.482 453.398C395.313 448.832 396.108 449.229 387.523 440.944C366.382 440.383 344.997 443.349 325.137 428.779C317.909 422.434 312.668 415.915 309.053 405.463C302.312 385.97 303.856 367.906 303.856 345.314C291.415 333.964 303.705 344.776 291.263 333.426C291.263 346.422 290.062 395.778 294.798 408.843Z" fill="url(#paint2_linear_1_301)"/>
<path d="M218.271 408.843C200.393 459.11 160.497 453.399 112.587 453.399C117.756 448.832 116.96 449.229 125.546 440.944C146.686 440.383 168.072 443.35 187.932 428.78C195.16 422.434 200.401 415.915 204.015 405.464C210.757 385.971 208.24 367.298 208.24 344.706C220.682 333.356 208.24 344.706 220.682 333.356C220.681 346.352 223.007 395.779 218.271 408.843Z" fill="url(#paint3_linear_1_301)"/>
<path d="M305.763 312.301C305.763 310.186 314.448 296.242 324.832 286.421C340.381 271.714 369.948 247.104 397.989 232.173C408.334 226.698 409.331 225.827 405.841 225.827C397.989 225.827 363.716 241.505 346.766 252.827C341.781 256.062 336.298 259.546 334.553 260.541C324.582 266.016 304.517 284.306 295.793 295.877C293.425 298.988 290.932 301.725 290.309 301.725C288.689 301.725 290.309 286.795 293.3 274.352C294.671 268.504 298.659 258.177 301.9 251.334C322.713 208.782 366.333 177.427 418.678 167.349C443.202 162.705 469.805 162.439 494.578 165.483C492.486 214.215 470.662 263.496 428.524 290.776C401.727 308.115 374.291 316.72 342.529 316.532C338.76 316.532 305.763 317.754 305.763 312.301Z" fill="url(#paint4_linear_1_301)"/>
<path d="M206.237 312.301C206.237 310.185 197.552 296.241 187.168 286.421C171.618 271.714 142.052 247.103 114.01 232.172C103.666 226.698 102.669 225.827 106.159 225.827C114.01 225.827 148.284 241.504 165.233 252.827C170.218 256.062 175.702 259.545 177.447 260.541C187.417 266.015 207.483 284.306 216.207 295.877C218.575 298.987 221.067 301.725 221.691 301.725C223.311 301.725 221.691 286.794 218.7 274.352C217.329 268.504 213.34 258.177 210.1 251.334C189.287 208.781 145.666 177.427 93.3218 167.348C68.7976 162.705 42.1948 162.438 17.4222 165.482C19.5141 214.215 41.3379 263.496 83.476 290.776C110.273 308.115 137.709 316.72 169.471 316.531C173.24 316.531 206.237 317.753 206.237 312.301Z" fill="url(#paint5_linear_1_301)"/>
<path d="M242.202 241.38C221.762 224.334 205.934 199.201 198.955 172.575C194.718 156.275 193.596 126.538 196.462 108.124C201.821 74.6541 219.02 41.6821 243.946 16.922L255.662 5.22632L259.276 7.83919C265.507 12.3184 278.843 27.1247 286.819 38.5716C308.629 69.6772 318.101 102.525 316.606 141.842C315.609 170.335 309.003 192.233 295.169 213.385C288.689 223.215 267.875 245.735 265.258 245.735C263.513 245.735 263.015 242.376 260.273 210.15C258.528 189.496 255.911 131.018 255.911 108.621C255.911 102.525 255.412 97.6723 254.914 97.6723C252.92 97.6723 250.427 143.584 249.804 195.095L249.056 247.104L242.202 241.38Z" fill="url(#paint6_linear_1_301)"/>
<path d="M149.976 155.529V148.685H158.077H166.178V155.529V162.372H158.077H149.976V155.529Z" fill="#5FD348"/>
<path d="M429.396 132.262L429.77 120.691H440.987H452.203L452.577 132.262L452.951 143.709H440.987H429.022L429.396 132.262Z" fill="#5FD348"/>
<path d="M106.605 127.906L106.979 114.469L121.062 114.096L135.02 113.722V127.533V141.22H120.688H106.231L106.605 127.906Z" fill="#5FD348"/>
<path d="M342.404 134.625C342.031 133.63 341.906 128.778 342.155 123.676L342.529 114.469H354.369H366.209V125.045V135.621L354.618 135.994C345.769 136.243 342.903 135.994 342.404 134.625Z" fill="#5FD348"/>
<path d="M152.717 88.0917L153.091 75.8983L164.682 75.5251L176.148 75.1518V87.7185V100.161H164.308H152.344L152.717 88.0917Z" fill="#5FD348"/>
<path d="M388.268 86.2251L388.642 79.6308L397.117 79.2575L405.467 78.8842V85.8519V92.6951H396.618H387.894L388.268 86.2251Z" fill="#5FD348"/>
<path d="M445.1 88.7133C444.85 87.0958 444.85 82.1189 445.1 77.5153L445.598 69.0546H457.313H469.029V80.2526V91.4506H457.313C446.221 91.4506 445.598 91.3262 445.1 88.7133Z" fill="#5FD348"/>
<path d="M342.529 60.3457C341.657 58.9771 341.906 41.1846 342.778 37.0787C343.402 34.3414 344.025 34.217 356.238 34.217H369.2L369.574 46.6592C369.823 53.5025 369.823 59.7236 369.574 60.3457C368.951 61.9632 343.526 61.9632 342.529 60.3457Z" fill="#5FD348"/>
<path d="M407.212 35.0873C406.963 34.2164 406.838 27.622 406.963 20.4055L407.337 7.46552H422.293H437.248V21.7741V36.0827L422.542 36.456C411.2 36.7048 407.711 36.456 407.212 35.0873Z" fill="#5FD348"/>
<path d="M342.404 15.1796C342.03 14.1842 341.906 10.3271 342.155 6.71882L342.529 0H351.876H361.224V8.08747V16.1749L352.126 16.5482C345.271 16.797 342.903 16.5482 342.404 15.1796Z" fill="#5FD348"/>
<defs>
<linearGradient id="paint0_linear_1_301" x1="377.852" y1="276.233" x2="375.389" y2="498.314" gradientUnits="userSpaceOnUse">
<stop offset="0.293269" stop-color="#008723"/>
<stop offset="1" stop-color="#50B93F"/>
</linearGradient>
<linearGradient id="paint1_linear_1_301" x1="140.432" y1="276.107" x2="138.021" y2="495.826" gradientUnits="userSpaceOnUse">
<stop offset="0.293269" stop-color="#008723"/>
<stop offset="1" stop-color="#50B93F"/>
</linearGradient>
<linearGradient id="paint2_linear_1_301" x1="347.079" y1="339.506" x2="345.75" y2="453.593" gradientUnits="userSpaceOnUse">
<stop offset="0.293269" stop-color="#008723"/>
<stop offset="1" stop-color="#50B93F"/>
</linearGradient>
<linearGradient id="paint3_linear_1_301" x1="165.653" y1="339.439" x2="166.993" y2="453.594" gradientUnits="userSpaceOnUse">
<stop offset="0.293269" stop-color="#008723"/>
<stop offset="1" stop-color="#50B93F"/>
</linearGradient>
<linearGradient id="paint4_linear_1_301" x1="394.512" y1="171.226" x2="393.358" y2="316.658" gradientUnits="userSpaceOnUse">
<stop stop-color="#7BE452"/>
<stop offset="0.581731" stop-color="#009928"/>
</linearGradient>
<linearGradient id="paint5_linear_1_301" x1="117.488" y1="171.226" x2="118.641" y2="316.658" gradientUnits="userSpaceOnUse">
<stop stop-color="#7BE452"/>
<stop offset="0.581731" stop-color="#009928"/>
</linearGradient>
<linearGradient id="paint6_linear_1_301" x1="257.237" y1="17.4635" x2="252.405" y2="247.032" gradientUnits="userSpaceOnUse">
<stop stop-color="#7BE452"/>
<stop offset="1" stop-color="#009928"/>
</linearGradient>
</defs>
</svg>
