<?xml version="1.0" encoding="UTF-8"?>
<svg width="100px" height="100px" viewBox="0 0 100 100" version="1.1" xmlns="http://www.w3.org/2000/svg" xmlns:xlink="http://www.w3.org/1999/xlink">
    <title>treenix 3 copy 2</title>
    <defs>
        <rect id="path-1" x="0" y="0" width="11.578845" height="45.5654825"></rect>
        <linearGradient x1="50%" y1="1.23259516e-30%" x2="50%" y2="100%" id="linearGradient-3">
            <stop stop-color="#BCE30F" offset="0%"></stop>
            <stop stop-color="#2E8113" offset="100%"></stop>
        </linearGradient>
        <rect id="path-4" x="0" y="0" width="11.578845" height="45.5654825"></rect>
        <linearGradient x1="50%" y1="1.23259516e-30%" x2="50%" y2="100%" id="linearGradient-6">
            <stop stop-color="#97B70B" offset="0%"></stop>
            <stop stop-color="#2E8113" offset="100%"></stop>
        </linearGradient>
        <rect id="path-7" x="0" y="0" width="11.5693208" height="49.5828036"></rect>
        <linearGradient x1="50%" y1="1.23259516e-30%" x2="50%" y2="100%" id="linearGradient-9">
            <stop stop-color="#BCE30F" offset="0%"></stop>
            <stop stop-color="#2E8113" offset="100%"></stop>
        </linearGradient>
        <rect id="path-10" x="0" y="0" width="11.5693208" height="49.5828036"></rect>
        <linearGradient x1="50%" y1="1.23259516e-30%" x2="50%" y2="100%" id="linearGradient-12">
            <stop stop-color="#97B70B" offset="0%"></stop>
            <stop stop-color="#2E8113" offset="100%"></stop>
        </linearGradient>
        <rect id="path-13" x="0" y="0" width="11.5693208" height="49.5828036"></rect>
        <rect id="path-15" x="0" y="0" width="11.5693208" height="49.5828036"></rect>
    </defs>
    <g id="treenix-3-copy-2" stroke="none" stroke-width="1" fill="none" fill-rule="evenodd">
        <g id="FreeSample-Vectorizer-io-ChatGPT-Image-Apr-18,-2026,-01_31_05-PM" transform="translate(0.8909, 7.807)">
            <g id="Group" transform="translate(50.0874, 41.0965) rotate(180) translate(-50.0874, -41.0965)">
                <g id="Leaf" transform="translate(39.0658, 0)">
                    <g id="Path">
                        <mask id="mask-2" fill="white">
                            <use xlink:href="#path-1"></use>
                        </mask>
                        <g id="Mask"></g>
                        <path d="M7.82201468,43.7601411 C4.35378862,40.2645503 2.13558102,36.3580247 0.789702254,31.3650794 C-0.0366136275,28.3915344 -0.249423518,23.377425 0.318069524,20.4038801 C1.28625867,15.2804233 3.47954259,10.2239859 6.75988243,5.53439153 C8.67133704,2.82186949 11.1023545,0 11.5260571,0 C11.9267532,0 14.9003401,3.47266314 16.5759783,5.9047619 C19.3597617,9.94179894 21.5779693,14.978836 22.5691649,19.4285714 C23.1596645,22.1410935 23.1347408,27.8289242 22.5461585,30.3686067 C21.6258995,34.2751323 20.1860776,37.5326279 18.0158002,40.5273369 C16.5050417,42.6119929 14.1698845,45.042328 13.9091444,44.7813051 C13.7442647,44.6296296 13.2247018,40.8959436 12.8470122,37.2275132 C12.7051389,35.8377425 11.7848799,23.031746 11.7848799,22.4673721 C11.7848799,22.2945326 11.6430067,22.1410935 11.4551205,22.1410935 C11.0295007,22.1410935 10.9355576,22.7918871 10.4869313,29.9559083 C10.1571719,35.0793651 9.6146025,41.005291 9.23691287,43.8271605 L9.07203314,45 L7.82201468,43.7619048 L7.82201468,43.7601411 Z" fill="url(#linearGradient-3)" fill-rule="nonzero" mask="url(#mask-2)"></path>
                    </g>
                    <g id="Path-Right" transform="translate(11.4212, 0)">
                        <mask id="mask-5" fill="white">
                            <use xlink:href="#path-4"></use>
                        </mask>
                        <g id="Mask"></g>
                        <path d="M-3.59913966,43.7601411 C-7.06736571,40.2645503 -9.28557331,36.3580247 -10.6314521,31.3650794 C-11.457768,28.3915344 -11.6705779,23.377425 -11.1030848,20.4038801 C-10.1348957,15.2804233 -7.94161175,10.2239859 -4.6612719,5.53439153 C-2.7498173,2.82186949 -0.318799809,0 0.104902766,0 C0.505598867,0 3.47918572,3.47266314 5.15482396,5.9047619 C7.93860739,9.94179894 10.156815,14.978836 11.1480106,19.4285714 C11.7385101,22.1410935 11.7135864,27.8289242 11.1250041,30.3686067 C10.2047451,34.2751323 8.76492327,37.5326279 6.59464583,40.5273369 C5.08388733,42.6119929 2.74873015,45.042328 2.4879901,44.7813051 C2.32311037,44.6296296 1.80354748,40.8959436 1.42585785,37.2275132 C1.28398459,35.8377425 0.363725607,23.031746 0.363725607,22.4673721 C0.363725607,22.2945326 0.221852346,22.1410935 0.0339661362,22.1410935 C-0.391653645,22.1410935 -0.48559675,22.7918871 -0.934223006,29.9559083 C-1.26398248,35.0793651 -1.80655184,41.005291 -2.18424146,43.8271605 L-2.3491212,45 L-3.59913966,43.7619048 L-3.59913966,43.7601411 Z" fill="url(#linearGradient-6)" fill-rule="nonzero" mask="url(#mask-5)"></path>
                    </g>
                </g>
                <g id="Leaf-3" transform="translate(27.2153, 59.8462) rotate(240) translate(-27.2153, -59.8462)translate(15.7247, 35.0548)">
                    <g id="Path" transform="translate(-0, 0)">
                        <mask id="mask-8" fill="white">
                            <use xlink:href="#path-7"></use>
                        </mask>
                        <g id="Mask"></g>
                        <path d="M7.81558071,47.6182927 C4.35020743,43.81451 2.13382441,39.5635621 0.789052687,34.1304093 C-0.0365835111,30.8946991 -0.249218356,25.4385164 0.317807897,22.2028062 C1.28520066,16.6276353 3.4766805,11.1253927 6.75432211,6.02233606 C8.66420446,3.07066211 11.0932223,0 11.5165764,0 C11.9169429,0 14.8880838,3.77883356 16.5623438,6.42536046 C19.3438374,10.8183264 21.5602204,16.2994583 22.5506008,21.1415086 C23.1406146,24.0931826 23.1157114,30.2824859 22.5276132,33.0460818 C21.6081112,37.2970296 20.1694736,40.8417252 18.0009813,44.1004654 C16.4914655,46.368917 14.1582291,49.0135248 13.8977035,48.7294885 C13.7329594,48.5644404 13.2138239,44.5015706 12.8364449,40.5097099 C12.6946884,38.9974088 11.7751863,25.0623603 11.7751863,24.4482279 C11.7751863,24.2601498 11.6334298,24.0931826 11.4456981,24.0931826 C11.0204284,24.0931826 10.9265626,24.801354 10.4783053,32.5969975 C10.1488171,38.1721683 9.60669404,44.6205588 9.22931508,47.6912209 L9.06457097,48.9674648 L7.81558071,47.6202118 L7.81558071,47.6182927 Z" fill="url(#linearGradient-9)" fill-rule="nonzero" mask="url(#mask-8)"></path>
                    </g>
                    <g id="Path-Right" transform="translate(11.4118, 0)">
                        <mask id="mask-11" fill="white">
                            <use xlink:href="#path-10"></use>
                        </mask>
                        <g id="Mask"></g>
                        <path d="M-3.5961792,47.6182927 C-7.06155247,43.81451 -9.27793549,39.5635621 -10.6227072,34.1304093 C-11.4483434,30.8946991 -11.6609783,25.4385164 -11.093952,22.2028062 C-10.1265592,16.6276353 -7.9350794,11.1253927 -4.65743779,6.02233606 C-2.74755545,3.07066211 -0.318537581,0 0.104816479,0 C0.505182988,0 3.47632393,3.77883356 5.15058387,6.42536046 C7.93207752,10.8183264 10.1484605,16.2994583 11.1388408,21.1415086 C11.7288547,24.0931826 11.7039515,30.2824859 11.1158533,33.0460818 C10.1963513,37.2970296 8.75771372,40.8417252 6.58922143,44.1004654 C5.07970559,46.368917 2.74646919,49.0135248 2.48594361,48.7294885 C2.3211995,48.5644404 1.80206398,44.5015706 1.42468502,40.5097099 C1.28292846,38.9974088 0.363426425,25.0623603 0.363426425,24.4482279 C0.363426425,24.2601498 0.221669862,24.0931826 0.0339381974,24.0931826 C-0.391331492,24.0931826 -0.485197324,24.801354 -0.933454564,32.5969975 C-1.26294279,38.1721683 -1.80506586,44.6205588 -2.18244482,47.6912209 L-2.34718894,48.9674648 L-3.5961792,47.6202118 L-3.5961792,47.6182927 Z" fill="url(#linearGradient-12)" fill-rule="nonzero" mask="url(#mask-11)"></path>
                    </g>
                </g>
                <g id="Leaf-2" transform="translate(72.9596, 59.8462) rotate(120) translate(-72.9596, -59.8462)translate(61.4691, 35.0548)">
                    <g id="Path" transform="translate(-0, -0)">
                        <mask id="mask-14" fill="white">
                            <use xlink:href="#path-13"></use>
                        </mask>
                        <g id="Mask"></g>
                        <path d="M7.81558071,47.6182927 C4.35020743,43.81451 2.13382441,39.5635621 0.789052687,34.1304093 C-0.0365835111,30.8946991 -0.249218356,25.4385164 0.317807897,22.2028062 C1.28520066,16.6276353 3.4766805,11.1253927 6.75432211,6.02233606 C8.66420446,3.07066211 11.0932223,0 11.5165764,0 C11.9169429,0 14.8880838,3.77883356 16.5623438,6.42536046 C19.3438374,10.8183264 21.5602204,16.2994583 22.5506008,21.1415086 C23.1406146,24.0931826 23.1157114,30.2824859 22.5276132,33.0460818 C21.6081112,37.2970296 20.1694736,40.8417252 18.0009813,44.1004654 C16.4914655,46.368917 14.1582291,49.0135248 13.8977035,48.7294885 C13.7329594,48.5644404 13.2138239,44.5015706 12.8364449,40.5097099 C12.6946884,38.9974088 11.7751863,25.0623603 11.7751863,24.4482279 C11.7751863,24.2601498 11.6334298,24.0931826 11.4456981,24.0931826 C11.0204284,24.0931826 10.9265626,24.801354 10.4783053,32.5969975 C10.1488171,38.1721683 9.60669404,44.6205588 9.22931508,47.6912209 L9.06457097,48.9674648 L7.81558071,47.6202118 L7.81558071,47.6182927 Z" fill="url(#linearGradient-9)" fill-rule="nonzero" mask="url(#mask-14)"></path>
                    </g>
                    <g id="Path-Right" transform="translate(11.4118, -0)">
                        <mask id="mask-16" fill="white">
                            <use xlink:href="#path-15"></use>
                        </mask>
                        <g id="Mask"></g>
                        <path d="M-3.5961792,47.6182927 C-7.06155247,43.81451 -9.27793549,39.5635621 -10.6227072,34.1304093 C-11.4483434,30.8946991 -11.6609783,25.4385164 -11.093952,22.2028062 C-10.1265592,16.6276353 -7.9350794,11.1253927 -4.65743779,6.02233606 C-2.74755545,3.07066211 -0.318537581,0 0.104816479,0 C0.505182988,0 3.47632393,3.77883356 5.15058387,6.42536046 C7.93207752,10.8183264 10.1484605,16.2994583 11.1388408,21.1415086 C11.7288547,24.0931826 11.7039515,30.2824859 11.1158533,33.0460818 C10.1963513,37.2970296 8.75771372,40.8417252 6.58922143,44.1004654 C5.07970559,46.368917 2.74646919,49.0135248 2.48594361,48.7294885 C2.3211995,48.5644404 1.80206398,44.5015706 1.42468502,40.5097099 C1.28292846,38.9974088 0.363426425,25.0623603 0.363426425,24.4482279 C0.363426425,24.2601498 0.221669862,24.0931826 0.0339381974,24.0931826 C-0.391331492,24.0931826 -0.485197324,24.801354 -0.933454564,32.5969975 C-1.26294279,38.1721683 -1.80506586,44.6205588 -2.18244482,47.6912209 L-2.34718894,48.9674648 L-3.5961792,47.6202118 L-3.5961792,47.6182927 Z" fill="url(#linearGradient-12)" fill-rule="nonzero" mask="url(#mask-16)"></path>
                    </g>
                </g>
            </g>
        </g>
    </g>
</svg>