<svg width="512" height="512" viewBox="0 0 512 512" fill="none" xmlns="http://www.w3.org/2000/svg">
<path d="M124.333 490.537C124.333 490.079 127.308 486.762 130.856 483.102L137.378 476.468H176.51H215.642L235.78 461.484C246.879 453.249 256.605 446.729 257.406 447.072C258.093 447.415 267.704 454.049 278.689 462.056L298.598 476.468H336.815H375.032L381.897 482.988C385.559 486.533 388.648 489.85 388.648 490.422C388.648 490.88 367.022 491.337 340.476 491.337H292.305L276.743 479.899C259.008 466.86 256.491 466.174 249.282 471.664C246.994 473.494 240.014 478.641 233.95 483.102L222.851 491.337H173.535C146.531 491.337 124.333 490.994 124.333 490.537Z" fill="#50B93F"/>
<path d="M390.593 471.892L382.813 465.029H344.71H306.493L300.429 460.797C296.996 458.51 287.156 451.304 278.574 444.784L262.784 432.889V357.283C262.784 283.165 262.784 281.45 265.187 276.76C267.475 271.842 275.37 263.721 277.773 263.721C278.689 263.721 278.803 265.551 278.231 269.783C276.629 281.221 275.828 314.963 275.943 363.231C276.171 420.65 275.828 418.82 287.842 430.715C291.962 434.833 299.514 440.895 304.434 444.212L313.473 450.16H369.196C415.652 450.16 425.835 450.389 429.84 451.876C436.133 454.049 455.127 466.631 462.45 473.379L468.171 478.64L433.273 478.755H398.26L390.593 471.892Z" fill="url(#paint0_linear_1_301)"/>
<path d="M51.218 470.405C57.74 464.229 72.0428 455.307 80.6244 451.99C84.858 450.389 92.2954 450.16 142.527 450.16H199.509L212.553 440.895C226.741 430.944 229.487 428.199 233.263 420.421C235.552 415.732 235.78 412.758 236.581 387.823C237.497 354.767 236.696 286.94 235.208 275.388C233.95 264.865 233.95 263.721 235.323 263.721C237.611 263.721 245.506 271.956 247.795 276.76C250.198 281.45 250.198 283.165 250.198 357.855V434.032L235.895 444.67C228 450.503 218.503 457.48 214.727 460.225L207.862 465.029H179.485C163.924 465.029 146.188 465.372 140.009 465.83L128.796 466.516L123.189 471.549L117.697 476.467H81.3109L44.8104 476.353L51.218 470.405Z" fill="url(#paint1_linear_1_301)"/>
<path d="M291.62 396.506C308.034 442.716 344.662 437.466 388.648 437.466C383.903 433.268 384.633 433.633 376.75 426.016C357.341 425.5 337.708 428.228 319.474 414.834C312.838 409 308.026 403.008 304.708 393.4C298.519 375.48 299.936 358.874 299.936 338.105C288.514 327.672 299.797 337.611 288.375 327.177C288.375 339.124 287.272 384.497 291.62 396.506Z" fill="url(#paint2_linear_1_301)"/>
<path d="M221.361 396.507C204.948 442.716 168.32 437.466 124.333 437.466C129.079 433.268 128.349 433.633 136.231 426.017C155.64 425.501 175.274 428.228 193.507 414.834C200.144 409.001 204.955 403.008 208.273 393.4C214.462 375.48 212.152 358.315 212.152 337.546C223.574 327.113 212.152 337.546 223.574 327.113C223.574 339.059 225.709 384.497 221.361 396.507Z" fill="url(#paint3_linear_1_301)"/>
<path d="M301.687 307.757C301.687 305.813 309.661 292.994 319.194 283.966C333.47 270.446 360.615 247.822 386.36 234.097C395.857 229.064 396.772 228.263 393.568 228.263C386.359 228.263 354.893 242.675 339.332 253.084C334.755 256.058 329.721 259.26 328.119 260.175C318.965 265.208 300.543 282.022 292.534 292.659C290.36 295.519 288.071 298.035 287.499 298.035C286.012 298.035 287.499 284.309 290.245 272.871C291.504 267.495 295.165 258.002 298.14 251.711C317.249 212.593 357.296 183.769 405.354 174.505C427.869 170.236 452.293 169.991 475.036 172.789C473.116 217.588 453.08 262.892 414.393 287.969C389.791 303.909 364.602 311.82 335.442 311.646C331.981 311.646 301.687 312.77 301.687 307.757Z" fill="url(#paint4_linear_1_301)"/>
<path d="M210.313 307.757C210.313 305.812 202.339 292.994 192.806 283.966C178.53 270.446 151.385 247.822 125.64 234.096C116.143 229.063 115.228 228.263 118.432 228.263C125.64 228.263 157.106 242.675 172.668 253.083C177.245 256.057 182.279 259.26 183.881 260.175C193.035 265.207 211.457 282.021 219.466 292.658C221.64 295.518 223.929 298.034 224.501 298.034C225.988 298.034 224.501 284.309 221.755 272.871C220.496 267.495 216.835 258.001 213.86 251.711C194.751 212.593 154.704 183.769 106.646 174.504C84.1309 170.236 59.707 169.99 36.9634 172.788C38.884 217.588 58.9203 262.891 97.607 287.969C122.209 303.909 147.398 311.819 176.558 311.646C180.019 311.646 210.313 312.769 210.313 307.757Z" fill="url(#paint5_linear_1_301)"/>
<path d="M243.332 242.561C224.567 226.891 210.035 203.786 203.627 179.309C199.737 164.325 198.707 136.988 201.339 120.06C206.259 89.2918 222.049 58.9812 244.934 36.2196L255.689 25.4679L259.008 27.8699C264.729 31.9875 276.972 45.5987 284.295 56.1217C304.319 84.7166 313.015 114.913 311.642 151.057C310.726 177.25 304.662 197.381 291.961 216.825C286.011 225.861 266.903 246.564 264.5 246.564C262.898 246.564 262.44 243.476 259.923 213.851C258.321 194.864 255.918 141.106 255.918 120.517C255.918 114.913 255.461 110.452 255.003 110.452C253.172 110.452 250.884 152.658 250.312 200.011L249.625 247.822L243.332 242.561Z" fill="url(#paint6_linear_1_301)"/>
<path d="M158.66 163.639V157.348H166.098H173.535V163.639V169.929H166.098H158.66V163.639Z" fill="#5FD348"/>
<path d="M415.194 142.25L415.537 131.612H425.835H436.133L436.476 142.25L436.82 152.773H425.835H414.851L415.194 142.25Z" fill="#5FD348"/>
<path d="M118.841 138.246L119.185 125.893L132.114 125.55L144.93 125.207V137.903V150.485H131.771H118.498L118.841 138.246Z" fill="#5FD348"/>
<path d="M335.327 144.423C334.984 143.508 334.87 139.047 335.098 134.357L335.442 125.893H346.312H357.182V135.615V145.338L346.541 145.681C338.417 145.91 335.785 145.681 335.327 144.423Z" fill="#5FD348"/>
<path d="M161.177 101.645L161.52 90.4356L172.162 90.0925L182.688 89.7493V101.302V112.74H171.818H160.834L161.177 101.645Z" fill="#5FD348"/>
<path d="M377.435 99.9289L377.778 93.8668L385.559 93.5237L393.225 93.1805V99.5858V105.877H385.101H377.091L377.435 99.9289Z" fill="#5FD348"/>
<path d="M429.611 102.216C429.382 100.729 429.382 96.1541 429.611 91.9221L430.069 84.1442H440.825H451.58V94.4384V104.733H440.825C430.641 104.733 430.069 104.618 429.611 102.216Z" fill="#5FD348"/>
<path d="M335.442 76.1383C334.641 74.8802 334.87 58.5239 335.671 54.7493C336.243 52.233 336.815 52.1186 348.028 52.1186H359.928L360.271 63.5566C360.5 69.8475 360.5 75.5664 360.271 76.1383C359.699 77.6253 336.357 77.6253 335.442 76.1383Z" fill="#5FD348"/>
<path d="M394.827 52.9187C394.598 52.118 394.484 46.0559 394.598 39.4219L394.941 27.5264H408.672H422.403V40.68V53.8337L408.901 54.1769C398.489 54.4056 395.285 54.1769 394.827 52.9187Z" fill="#5FD348"/>
<path d="M335.327 34.6178C334.984 33.7027 334.87 30.157 335.098 26.84L335.442 20.6635H344.023H352.605V28.0981V35.5328L344.252 35.876C337.959 36.1047 335.785 35.876 335.327 34.6178Z" fill="#5FD348"/>
<defs>
<linearGradient id="paint0_linear_1_301" x1="367.872" y1="274.6" x2="365.605" y2="478.756" gradientUnits="userSpaceOnUse">
<stop offset="0.293269" stop-color="#008723"/>
<stop offset="1" stop-color="#50B93F"/>
</linearGradient>
<linearGradient id="paint1_linear_1_301" x1="149.898" y1="274.484" x2="147.679" y2="476.469" gradientUnits="userSpaceOnUse">
<stop offset="0.293269" stop-color="#008723"/>
<stop offset="1" stop-color="#50B93F"/>
</linearGradient>
<linearGradient id="paint2_linear_1_301" x1="339.619" y1="332.766" x2="338.395" y2="437.645" gradientUnits="userSpaceOnUse">
<stop offset="0.293269" stop-color="#008723"/>
<stop offset="1" stop-color="#50B93F"/>
</linearGradient>
<linearGradient id="paint3_linear_1_301" x1="173.053" y1="332.705" x2="174.286" y2="437.645" gradientUnits="userSpaceOnUse">
<stop offset="0.293269" stop-color="#008723"/>
<stop offset="1" stop-color="#50B93F"/>
</linearGradient>
<linearGradient id="paint4_linear_1_301" x1="383.167" y1="178.069" x2="382.105" y2="311.763" gradientUnits="userSpaceOnUse">
<stop stop-color="#7BE452"/>
<stop offset="0.581731" stop-color="#009928"/>
</linearGradient>
<linearGradient id="paint5_linear_1_301" x1="128.833" y1="178.069" x2="129.895" y2="311.762" gradientUnits="userSpaceOnUse">
<stop stop-color="#7BE452"/>
<stop offset="0.581731" stop-color="#009928"/>
</linearGradient>
<linearGradient id="paint6_linear_1_301" x1="257.136" y1="36.7174" x2="252.688" y2="247.756" gradientUnits="userSpaceOnUse">
<stop stop-color="#7BE452"/>
<stop offset="1" stop-color="#009928"/>
</linearGradient>
</defs>
</svg>
